<?xml version="1.0" encoding="UTF-8"?>
<!DOCTYPE svg PUBLIC "-//W3C//DTD SVG 1.1//EN" "http://www.w3.org/Graphics/SVG/1.1/DTD/svg11.dtd">
<!-- Creator: CorelDRAW 2018 (64-Bit Wersja próbna) -->
<svg xmlns="http://www.w3.org/2000/svg" xml:space="preserve" width="14.1896mm" height="20.4614mm" version="1.1" style="shape-rendering:geometricPrecision; text-rendering:geometricPrecision; image-rendering:optimizeQuality; fill-rule:evenodd; clip-rule:evenodd"
viewBox="0 0 242.46 349.63"
 xmlns:xlink="http://www.w3.org/1999/xlink">
 <defs>
  <style type="text/css">
   <![CDATA[
    .fil2 {fill:#336699}
    .fil0 {fill:#6699FF}
    .fil3 {fill:#FFC473}
    .fil1 {fill:#FFDBA9}
   ]]>
  </style>
 </defs>
 <g id="Warstwa_x0020_1">
  <metadata id="CorelCorpID_0Corel-Layer"/>
  <path class="fil0" d="M242.46 121.23c0,27.34 -19.18,72.41 -57,133.94 -27.66,44.99 -55.71,82.95 -55.99,83.34l-8.23 11.13 -8.23 -11.13c-0.28,-0.38 -28.33,-38.34 -55.99,-83.34 -37.82,-61.53 -57,-106.6 -57,-133.94 -0,-66.84 54.38,-121.23 121.23,-121.23 66.85,0 121.23,54.39 121.23,121.23z"/>
  <path class="fil1" d="M190.56 119.35c0,38.23 -31.1,69.33 -69.32,69.33 -38.23,0 -69.32,-31.1 -69.32,-69.33 0,-38.22 31.1,-69.32 69.32,-69.32 38.23,0 69.32,31.1 69.32,69.32z"/>
  <path class="fil2" d="M242.46 121.23c0,27.34 -19.18,72.41 -57,133.94 -27.66,44.99 -55.71,82.95 -55.99,83.34l-8.23 11.13 0 -349.63c66.85,0 121.23,54.39 121.23,121.23z"/>
  <path class="fil3" d="M190.56 119.35c0,38.23 -31.1,69.33 -69.32,69.33l0 -138.66c38.23,0 69.32,31.1 69.32,69.32z"/>
 </g>
</svg>
