<?xml version="1.0" encoding="UTF-8"?>
<!DOCTYPE svg PUBLIC "-//W3C//DTD SVG 1.1//EN" "http://www.w3.org/Graphics/SVG/1.1/DTD/svg11.dtd">
<!-- Creator: CorelDRAW 2018 (64-Bit Wersja próbna) -->
<svg xmlns="http://www.w3.org/2000/svg" xml:space="preserve" width="31.9661mm" height="38.5795mm" version="1.1" style="shape-rendering:geometricPrecision; text-rendering:geometricPrecision; image-rendering:optimizeQuality; fill-rule:evenodd; clip-rule:evenodd"
viewBox="0 0 2779.93 3355.07"
 xmlns:xlink="http://www.w3.org/1999/xlink">
 <defs>
  <style type="text/css">
   <![CDATA[
    .fil0 {fill:url(#id0);fill-rule:nonzero}
   ]]>
  </style>
  <linearGradient id="id0" gradientUnits="userSpaceOnUse" x1="1044.82" y1="47.46" x2="1735.11" y2="3307.61">
   <stop offset="0" style="stop-opacity:1; stop-color:#88C057"/>
   <stop offset="0.780392" style="stop-opacity:1; stop-color:#66B859"/>
   <stop offset="1" style="stop-opacity:1; stop-color:#43B05C"/>
  </linearGradient>
 </defs>
 <g id="Warstwa_x0020_1">
  <metadata id="CorelCorpID_0Corel-Layer"/>
  <path class="fil0" d="M2661.27 826.63c-68.55,-154.83 -165.28,-297.33 -288.67,-420.6 -28.96,-29.07 -59.4,-56.03 -90.51,-82.38 -179.01,-150.18 -392.09,-253.02 -622.87,-298.29 -88.7,-17.61 -179.03,-25.23 -269.12,-25.36l-247.87 0 0 1407.47c0,136.58 110.97,247.78 247.38,247.78l0.05 0c136.58,0 247.39,-110.72 247.81,-247.09 0,-0.23 0.07,-0.36 0.07,-0.7l0 -880.2 60.48 22.14c154.95,56.95 287.3,154.57 386.88,277.91 103.42,128.14 171.01,284.23 192.12,451.45 4.43,36.3 7.44,72.98 7.44,110.35 0,266.79 -118.06,506.1 -304.06,670.14 0.48,-0.1 1.08,-0.23 1.53,-0.3 -491.35,459.3 -673.2,601.37 -592.01,809.85 -330.08,-239.47 -209.89,-528.72 -171.68,-602.09 -411.34,-80.31 -723.2,-443.2 -723.2,-877.6l0 -0.23c0,-19.05 1.3,-38.25 2.64,-57.14 12.09,-183.74 81.57,-360.22 197.21,-503.7 4.98,-6.08 9.49,-12.64 14.55,-18.69l20.85 -25.02c37.09,-43.35 61.22,-101.69 61.22,-163.36 0,-137.04 -111.12,-248.31 -248.34,-248.31 -13.83,0 -27.25,1.69 -40.44,3.98 -47.93,7.98 -91.16,29.76 -125.76,60.97 -11.04,9.49 -50.98,57.15 -50.98,57.15 -85.83,101.91 -154.82,214.41 -207.69,333.87 -76.98,174.43 -118.31,363.87 -118.31,560.47 0,370.93 144.59,720.09 407.01,982.64l982.91 983.31 982.68 -983.31c262.76,-262.55 407.34,-611.7 407.34,-982.64l0 -0.23c0,-196.83 -41.08,-387.34 -118.66,-562.26z"/>
 </g>
</svg>
